<svg height="50" viewBox="0 0 50 50" width="50" xmlns="http://www.w3.org/2000/svg"><g fill="none" fill-rule="evenodd"><path d="m8.987 33.854c-4.955 0-8.987-4.032-8.987-8.987s4.032-8.987 8.987-8.987h4.34l1.304 3.258h-5.518c-1.726 0-3.346.77-4.441 2.112a5.758 5.758 0 0 0 -1.165 4.818c.537 2.624 2.961 4.527 5.765 4.527h15.645l1.304 3.26h-17.234z" fill="#3290ce"/><path d="m36.407 33.854-1.304-3.258h5.518c1.727 0 3.345-.77 4.441-2.113a5.755 5.755 0 0 0 1.165-4.817c-.537-2.624-2.962-4.528-5.766-4.528h-15.644l-1.304-3.258h17.233c4.956 0 8.987 4.032 8.987 8.987s-4.031 8.987-8.987 8.987z" fill="#f7b90c"/><path d="m15.88 8.987c0-4.955 4.032-8.987 8.987-8.987s8.987 4.032 8.987 8.987v4.34l-3.258 1.303v-5.517a5.736 5.736 0 0 0 -6.93-5.606c-2.624.537-4.528 2.962-4.528 5.765v15.645l-3.258 1.304z" fill="#00a14e"/><path d="m24.867 49.734c-4.955 0-8.987-4.032-8.987-8.987v-4.34l3.258-1.304v5.518a5.735 5.735 0 0 0 6.93 5.605c2.623-.536 4.528-2.961 4.528-5.765v-15.645l3.258-1.303v17.234c0 4.955-4.032 8.987-8.987 8.987" fill="#e7451c"/></g></svg>